<?xml version="1.0" encoding="UTF-8"?><svg xmlns="http://www.w3.org/2000/svg" viewBox="0 0 197.51 37.91"><defs><style>.e{fill:#fff;}</style></defs><g id="a"/><g id="b"><g id="c"><g><g><path class="e" d="M94.24,9.19h11.47c.19,0,.29,.09,.29,.28v.59c0,.36-.12,.66-.37,.91-.25,.25-.56,.37-.92,.37h-9c-.15,0-.29,.06-.4,.17-.11,.11-.17,.25-.17,.4v5.42h8.77c.19,0,.29,.09,.29,.28v.59c0,.36-.12,.66-.37,.91-.25,.25-.56,.37-.92,.37h-7.77v9.54h-2.18V10.47c0-.36,.12-.66,.37-.91,.25-.25,.56-.37,.92-.37Z"/><path class="e" d="M105.34,21.23c0-1.06,.19-2.05,.57-2.99,.38-.93,.91-1.75,1.58-2.45,.67-.7,1.46-1.25,2.36-1.66,.9-.41,1.86-.61,2.87-.61s1.97,.2,2.87,.61c.9,.41,1.69,.96,2.36,1.66,.67,.7,1.2,1.51,1.58,2.45,.38,.93,.57,1.93,.57,2.99s-.19,2.05-.57,2.99c-.38,.93-.91,1.75-1.58,2.45-.67,.7-1.46,1.25-2.36,1.66-.9,.41-1.86,.61-2.87,.61s-1.97-.2-2.87-.61c-.9-.41-1.69-.96-2.36-1.66-.67-.7-1.2-1.52-1.58-2.45-.38-.93-.57-1.93-.57-2.99Zm7.39,5.44c.73,0,1.4-.14,2.03-.42,.62-.28,1.17-.67,1.65-1.16,.48-.49,.85-1.07,1.12-1.73,.27-.66,.4-1.37,.4-2.12s-.13-1.43-.4-2.1c-.27-.66-.64-1.24-1.12-1.73-.48-.49-1.03-.88-1.65-1.16-.62-.28-1.3-.42-2.03-.42s-1.38,.14-2.01,.42c-.63,.28-1.19,.67-1.67,1.16-.48,.49-.85,1.07-1.12,1.73-.27,.66-.4,1.36-.4,2.1s.13,1.46,.4,2.12c.27,.66,.64,1.24,1.12,1.73,.48,.49,1.03,.88,1.67,1.16s1.3,.42,2.01,.42Z"/><path class="e" d="M131.81,16.77c-.37-.29-.72-.59-1.16-.79-.44-.2-.92-.3-1.44-.3-.65,0-1.26,.16-1.81,.47-.56,.31-1.04,.71-1.45,1.2-.41,.49-.75,1.04-1.01,1.64-.26,.6-.41,1.2-.45,1.78v7.82c0,.19-.14,.34-.32,.34h-1.81V14.34c0-.21,.08-.39,.24-.55,.16-.16,.35-.24,.56-.24h1.18c.1,0,.14,.06,.14,.17v2.27c.52-.72,1.18-1.29,2-1.73,.81-.43,1.71-.65,2.69-.65,.58,0,1.11,.08,1.6,.25,.49,.17,.94,.41,1.37,.71,.42,.3,.82,.64,1.19,1.02,.37,.38,.71,.78,1.02,1.22,.1,.13,.1,.27,0,.42h0c-.4,.72-1.33,.83-1.87,.23-.28-.32-.55-.59-.67-.69Z"/><path class="e" d="M148.83,23.92c-.13,.7-.38,1.35-.75,1.95-.36,.6-.81,1.12-1.35,1.56-.54,.43-1.14,.78-1.8,1.03-.66,.25-1.36,.38-2.08,.38h-.46c-.12,0-.23,0-.34-.01-.12,0-.21-.01-.29-.01-.94-.09-1.72-.28-2.34-.57-.62-.28-1.21-.8-1.77-1.56-.59-.81-.89-1.75-.89-2.8V15.51h-1.49c-.31,0-.46-.15-.46-.45v-1.64h1.95v-4.02c0-.26,.13-.4,.4-.4h.29c.4,0,.74,.14,1.02,.41,.28,.27,.42,.61,.42,1.01v3h6.52c.38,0,.7,.13,.96,.4,.26,.26,.39,.58,.39,.93v.31c0,.3-.16,.45-.49,.45h-7.39v8.69c.06,.45,.19,.84,.4,1.18,.21,.33,.47,.6,.79,.82,.32,.22,.68,.38,1.08,.5s.81,.17,1.24,.17h.37c.12,0,.24-.02,.37-.06,.04,0,.07,0,.09-.01s.05-.01,.09-.01c.35-.09,.66-.21,.95-.34,.4-.15,.77-.36,1.09-.62,.33-.26,.6-.58,.83-.93,.19-.3,.44-.54,.75-.71s.64-.25,1.01-.25h.89Z"/><path class="e" d="M163.84,13.89v15.04h-1.52c-.15,0-.29-.06-.42-.18s-.19-.27-.19-.44v-1.1c-.5,.45-1.06,.83-1.68,1.12-.62,.29-1.29,.49-2,.58h-1.75c-.77-.09-1.49-.32-2.17-.67-.68-.35-1.28-.79-1.8-1.32-.52-.53-.94-1.13-1.27-1.81-.33-.68-.52-1.4-.57-2.15V13.89c0-.25,.12-.37,.35-.37,.5,0,.92,.17,1.26,.51,.34,.34,.52,.76,.52,1.25v7.42c.04,.59,.19,1.13,.45,1.64,.26,.51,.59,.95,.99,1.32s.87,.66,1.41,.86c.54,.21,1.1,.31,1.7,.31h.37c.56,0,1.08-.11,1.58-.34,.5-.23,.93-.53,1.31-.91,.37-.38,.68-.82,.91-1.32,.23-.5,.36-1.02,.4-1.57v-7.42c0-.49,.17-.91,.52-1.25,.34-.34,.77-.51,1.26-.51,.1,0,.18,.04,.24,.11,.07,.08,.1,.16,.1,.25Z"/><path class="e" d="M166.48,28.56V13.52h1.52c.15,0,.29,.06,.42,.18s.19,.27,.19,.44v1.1c.5-.45,1.06-.83,1.68-1.12,.62-.29,1.29-.49,2-.58h1.75c.77,.09,1.49,.32,2.17,.67,.68,.35,1.28,.79,1.8,1.32,.52,.53,.94,1.13,1.27,1.81,.33,.68,.52,1.4,.57,2.15v9.06c0,.25-.12,.37-.35,.37-.5,0-.92-.17-1.26-.51-.34-.34-.52-.76-.52-1.25v-7.42c-.04-.59-.19-1.13-.45-1.64-.26-.51-.59-.95-.99-1.32s-.87-.66-1.41-.86c-.54-.21-1.1-.31-1.7-.31h-.37c-.56,0-1.08,.11-1.58,.34-.5,.23-.93,.53-1.31,.91-.37,.38-.68,.82-.91,1.32-.23,.5-.36,1.02-.4,1.57v7.42c0,.49-.17,.91-.52,1.25-.34,.34-.77,.51-1.26,.51-.1,0-.18-.04-.24-.11-.07-.08-.1-.16-.1-.25Z"/><path class="e" d="M189.72,13.58c1.09,0,2.11,.2,3.06,.59,.95,.4,1.77,.94,2.47,1.64,.7,.7,1.25,1.52,1.65,2.45,.4,.93,.6,1.93,.6,2.99,0,.21-.07,.38-.2,.51-.13,.13-.31,.2-.52,.2h-12.65c0,.4,.08,.77,.23,1.13,.15,.36,.34,.7,.55,1.02,.52,.79,1.19,1.44,2.01,1.94,.82,.5,1.75,.75,2.79,.75,.86,0,1.65-.17,2.37-.51,.72-.34,1.34-.79,1.85-1.36,.5-.55,1.11-.82,1.84-.82h.95c.13,0,.18,.07,.14,.2-.23,.7-.58,1.33-1.06,1.9-.48,.57-1.04,1.05-1.67,1.46-.63,.41-1.33,.72-2.08,.93s-1.54,.33-2.34,.33c-1.07,0-2.08-.2-3.03-.61-.95-.41-1.77-.95-2.47-1.64-.7-.69-1.26-1.5-1.67-2.44-.41-.93-.62-1.93-.62-2.99s.21-2.05,.62-2.99c.41-.93,.97-1.75,1.67-2.44,.7-.69,1.52-1.24,2.47-1.64,.95-.41,1.96-.61,3.03-.61Zm-5.49,6.46h11.01c-.13-.62-.37-1.2-.72-1.73-.34-.53-.76-.99-1.25-1.37-.49-.39-1.03-.69-1.64-.91-.6-.22-1.24-.33-1.91-.33s-1.31,.11-1.91,.33c-.6,.22-1.15,.52-1.64,.91-.49,.39-.9,.84-1.24,1.37-.34,.53-.57,1.1-.7,1.73Z"/></g><path class="e" d="M72.13,11.31h-.98c-.5,0-.89-.14-1.25-.48-.36-.35-.55-1.07-.55-1.58l3.18-.05,7.37-.04c.79,0,1.52,.15,2.21,.44,.69,.29,1.29,.69,1.81,1.19,.52,.5,.92,1.09,1.22,1.77,.3,.68,.45,1.41,.45,2.18-.02,.89-.22,1.7-.59,2.45-.37,.75-.89,1.36-1.54,1.85,.65,.51,1.17,1.14,1.55,1.88,.38,.75,.58,1.56,.58,2.45,0,.76-.15,1.47-.45,2.15-.3,.68-.7,1.27-1.22,1.78-.52,.51-1.12,.91-1.81,1.2-.69,.29-1.43,.44-2.21,.44l-7.43,.14-3.54,.04c0-.51,.18-1.32,.55-1.67,.36-.35,1.01-.64,1.69-.64l1.77-.02h6.96c.48,0,.93-.09,1.37-.27,.43-.18,.8-.42,1.12-.74s.56-.67,.75-1.09c.18-.42,.27-.86,.27-1.33s-.1-.89-.29-1.3c-.19-.42-.45-.78-.76-1.09-.32-.31-.69-.56-1.11-.74-.42-.18-.86-.27-1.32-.27h-9.48c-.67,0-1.22-.58-1.22-1.29v-.55h10.69c.46,0,.9-.09,1.32-.27,.42-.18,.79-.42,1.11-.74,.32-.31,.57-.67,.76-1.09,.19-.42,.29-.86,.29-1.33s-.09-.91-.27-1.32c-.18-.41-.43-.76-.75-1.08s-.69-.56-1.12-.74c-.43-.18-.89-.27-1.37-.27h-7.77Z"/><path class="e" d="M53.13,14.05c.03-.77,1.03-.96,1.3-.24l4.21,11.25c.08,.13,.17,.2,.29,.2,.13,0,.22-.07,.26-.2l5.98-15.94h1.9c.1,0,.17,.04,.23,.13s.07,.17,.03,.27l-6.93,18.43c-.12,.32-.31,.57-.59,.74-.28,.17-.57,.26-.88,.26-.33,0-.62-.09-.89-.26-.27-.17-.47-.42-.6-.74l-4.38-11.81,.07-2.1Z"/><path class="e" d="M54.37,16.4l-4.38,11.81c-.13,.32-.34,.57-.6,.74-.27,.17-.57,.26-.89,.26-.31,0-.6-.09-.88-.26-.28-.17-.47-.42-.59-.74l-6.93-18.43c-.04-.09-.03-.18,.03-.27s.13-.13,.23-.13h1.9l5.98,15.94c.04,.13,.12,.2,.26,.2,.11,0,.21-.07,.29-.2l4.21-11.25c.27-.72,1.27-.53,1.3,.24l.07,2.1Z"/></g></g><g id="d"><path class="e" d="M14.39,36.68l-.05-.03-.38-.2L2.2,29.66C.83,28.87-.01,27.4,0,25.81L.11,12.46c.01-1.86,1.03-3.6,2.64-4.53L16.5,0l3.41,1.87L3.53,11.32l-.14,14.55,2.05,1.18,.12-14.41L21.92,3.21l3.41,1.87L8.95,14.54l-.14,14.47,2.25,1.3,.12-14.5L27.55,6.36l3.41,1.87L14.57,17.68l-.18,19Z"/><path class="e" d="M16.22,37.91v-.44c-.03-2.41,1.26-4.64,3.35-5.84l9.57-5.46v-3.03l-9.35,5.4c-.75,.43-1.65,.44-2.4,0-.75-.43-1.21-1.2-1.22-2.07v-.15l12.96-7.49v-3.06l-9.35,5.35c-.75,.43-1.65,.43-2.4,0-.75-.43-1.2-1.2-1.21-2.07v-.37l16.69-9.54V25.39c0,1.89-1.02,3.65-2.67,4.59l-13.98,7.94Z"/></g></g></svg>